    81
 1.00000E-02 1.25000E-02 1.50000E-02 1.75000E-02 2.00000E-02 2.50000E-02 
 3.00000E-02 3.50000E-02 4.00000E-02 4.50000E-02 5.00000E-02 5.50000E-02 
 6.00000E-02 7.00000E-02 8.00000E-02 9.00000E-02 1.00000E-01 1.25000E-01 
 1.50000E-01 1.75000E-01 2.00000E-01 2.50000E-01 3.00000E-01 3.50000E-01 
 4.00000E-01 4.50000E-01 5.00000E-01 5.50000E-01 6.00000E-01 7.00000E-01 
 8.00000E-01 9.00000E-01 1.00000E+00 1.25000E+00 1.50000E+00 1.75000E+00 
 2.00000E+00 2.50000E+00 3.00000E+00 3.50000E+00 4.00000E+00
4.50000E+00 
 5.00000E+00 5.50000E+00 6.00000E+00 7.00000E+00 8.00000E+00
9.00000E+00 
 1.00000E+01 1.25000E+01 1.50000E+01 1.75000E+01 2.00000E+01
2.50000E+01 
 3.00000E+01 3.50000E+01 4.00000E+01 4.50000E+01 5.00000E+01
5.50000E+01 
 6.00000E+01 7.00000E+01 8.00000E+01 9.00000E+01 1.00000E+02
1.25000E+02 
 1.50000E+02 1.75000E+02 2.00000E+02 2.50000E+02 3.00000E+02
3.50000E+02 
 4.00000E+02 4.50000E+02 5.00000E+02 5.50000E+02 6.00000E+02
7.00000E+02 
 8.00000E+02 9.00000E+02 1.00000E+03 
